HIERARCHY
ROOT Hips
{
	OFFSET	0.00	0.00	0.00
	CHANNELS 6 Xposition Yposition Zposition Zrotation Xrotation Yrotation
	JOINT Spine
	{
		OFFSET	 0.00	0.01	 0.00
		CHANNELS 3 Zrotation Xrotation Yrotation
		JOINT Spine1
		{
			OFFSET	 0.00	 2.45913012437421	 0.00
			CHANNELS 3 Zrotation Xrotation Yrotation
            JOINT Neck
            {
                OFFSET	 0.00	 2.48462964506057	 0.00
                CHANNELS 3 Zrotation Xrotation Yrotation
                JOINT Head
                {
                    OFFSET	 0.00	 0.927524780924562	 0.00
                    CHANNELS 3 Zrotation Xrotation Yrotation
                    End Site 
                    {
                        OFFSET	 0.00	 1.14999962169752	 0.00
                    }
                }
            }
			JOINT LeftShoulder
			{
				OFFSET	 0.00	 2.48462964506057	 0.00
				CHANNELS 3 Zrotation Xrotation Yrotation
				JOINT LeftUpArm
				{
					OFFSET	 0.00	 1.24881979654096	 0.00
					CHANNELS 3 Zrotation Xrotation Yrotation
					JOINT LeftForeArm
					{
						OFFSET	 0.00	2.59758046908119	 0.00
						CHANNELS 3 Zrotation Xrotation Yrotation
						JOINT LeftHand
						{
							OFFSET	 0.00	2.45542024364365	 0.00
							CHANNELS 3 Zrotation Xrotation Yrotation
							JOINT LeftHandThumb 
							{
								OFFSET	 0.00	0.00	 0.00
								CHANNELS 3 Zrotation Xrotation Yrotation
								End Site
								{
									OFFSET	 0.00	0.00	1.00000003353624
								}
							}
							JOINT L_Wrist_End 
							{
								OFFSET	 0.00	0.99999967115358	 0.00
								CHANNELS 3 Zrotation Xrotation Yrotation
								End Site 
								{
									OFFSET	 0.00	 0.00	 0.00
								}
							}
						}
					}
				}
			}
			JOINT RightShoulder
			{
				OFFSET	 0.00	 2.48462964506057	 0.00
				CHANNELS 3 Zrotation Xrotation Yrotation
				JOINT RightUpArm
				{
					OFFSET	 0.00	 1.24881979654096	 0.00
					CHANNELS 3 Zrotation Xrotation Yrotation
					JOINT RightForeArm
					{
						OFFSET	 0.00	2.59758046908119	 0.00
						CHANNELS 3 Zrotation Xrotation Yrotation
						JOINT RightHand
						{
							OFFSET	 0.00	2.45542024364365	 0.00
							CHANNELS 3 Zrotation Xrotation Yrotation
							JOINT RightHandThumb 
							{
								OFFSET	 0.00	0.00	 0.00
								CHANNELS 3 Zrotation Xrotation Yrotation
								End Site
								{
									OFFSET	 0.00	0.00	1.00000003353624
								}
							}
							JOINT R_Wrist_End 
							{
								OFFSET	 0.00	0.99999967115358	 0.00
								CHANNELS 3 Zrotation Xrotation Yrotation
								End Site 
								{
									OFFSET	 0.00	 0.00	 0.00
								}
							}
						}
					}
				}
			}
		}
	}
	JOINT LeftUpLeg
	{
		OFFSET	 1.2719394002717	 0.00	 0.00
		CHANNELS 3 Zrotation Xrotation Yrotation
		JOINT LeftLowLeg
		{
			OFFSET	 0.00	-4.3429100912261	 0.00
			CHANNELS 3 Zrotation Xrotation Yrotation
			JOINT LeftFoot
			{
				OFFSET	 0.00	-4.48767017425826	 0.00
				CHANNELS 3 Zrotation Xrotation Yrotation
				JOINT LeftToeBase
                {
                    OFFSET	 0.00	0.00	 1.51507020887566
                    CHANNELS 3 Zrotation Xrotation Yrotation
                    End Site 
                    {
                        OFFSET	 0.00	0.00	 0.75000010571191
                    }
                }
			}
		}
	}
	JOINT RightUpLeg
	{
		OFFSET	 -1.2719393604653	 0.00	 0.00
		CHANNELS 3 Zrotation Xrotation Yrotation
		JOINT RightLowLeg
		{
			OFFSET	 0.00	-4.3429100912261	 0.00
			CHANNELS 3 Zrotation Xrotation Yrotation
			JOINT RightFoot
			{
				OFFSET	 0.00	-4.48767017425826	 0.00
				CHANNELS 3 Zrotation Xrotation Yrotation
				JOINT RightToeBase
                {
                    OFFSET	 0.00	0.00	 1.51507020887566
                    CHANNELS 3 Zrotation Xrotation Yrotation
                    End Site 
                    {
                        OFFSET	 0.00	0.00	 0.749999965609858
                    }
                }   
			}
		}
	}
}
MOTION 
Frames:	8 
Frame Time: 0.02 
  2.5357899475097656 2.5682501220703124 9.823839721679688 -125.868 76.8965 126.3 -5.38096 -5.39863 2.7638 -7.26675 5.18262 4.17068 26.3942 25.6593 -36.7724 5.75146 -60.9864 -21.3926 -105.5528 -8.16252 4.5409 -37.0824 9.78647 3.21971 0.0 31.3308 0.0 16.7436 -11.1727 1.00337 0.0 0.0 0.0 0.0 0.0 0.0 98.46405 -4.28089 11.0197 8.25756 16.034 60.2536 0.0 34.4352 0.0 5.5054 -6.66997 64.5576 0.0 0.0 0.0 0.0 0.0 0.0 9.70192 -15.6854 -3.31305 0.0 27.6117 0.0 10.6126 -0.42650032 3.59169 0.0 -36.8715 0.0 2.62092 -8.79336 -3.26118 0.0 18.1835 0.0 13.9398 17.81043 5.58121 0.0 -34.039497 0.0 
  2.5665301513671874 2.555119934082031 9.820139770507813 -125.644 76.9293 125.787 -5.46349 -5.72164 2.74271 -7.40516 5.76812 4.20838 26.5724 25.7766 -36.8323 5.80001 -60.9467 -21.4213 -105.5058 -8.12454 4.32947 -37.1245 9.90125 3.79604 0.0 29.7398 0.0 16.042 -11.1762 0.885201 0.0 0.0 0.0 0.0 0.0 0.0 98.31636 -4.03479 10.8386 8.4478 15.979 60.6337 0.0 34.5134 0.0 5.6176 -6.61208 64.629 0.0 0.0 0.0 0.0 0.0 0.0 9.56393 -15.5074 -3.12979 0.0 27.7373 0.0 10.8419 -0.5773001 3.77317 0.0 -36.941498 0.0 2.55725 -8.65337 -2.64074 0.0 18.1 0.0 14.1969 17.719059 5.20957 0.0 -33.9581 0.0 
  2.5964199829101564 2.5445399475097656 9.817360229492188 -125.567 76.9266 125.381 -5.60527 -5.79356 2.82791 -7.28842 5.77101 4.3192 26.7111 26.0694 -36.931 5.44062 -60.9347 -21.893 -105.623 -7.99489 4.39553 -37.1184 9.98588 4.25998 0.0 28.2825 0.0 15.2994 -11.2474 0.100745 0.0 0.0 0.0 0.0 0.0 0.0 97.63756 -4.23825 13.3705 10.2556 15.6574 58.1446 0.0 34.7813 0.0 5.72616 -6.51974 64.0821 0.0 0.0 0.0 0.0 0.0 0.0 9.46552 -15.3492 -2.76002 0.0 27.7945 0.0 11.0975 -0.7191 3.9341 0.0 -36.9924 0.0 2.53929 -8.55712 -1.96184 0.0 18.0115 0.0 14.253 17.73304 4.80284 0.0 -33.8167 0.0 
  2.6275100708007812 2.5378199768066407 9.816630249023438 -125.565 76.9008 125.013 -5.50392 -5.83388 2.9199 -7.56922 5.69054 4.38506 26.9193 26.4072 -36.9265 5.3104 -60.834 -22.1089 -105.5452 -8.00941 4.27824 -37.2494 10.0233 4.64417 0.0 26.9073 0.0 14.7299 -11.2614 -0.690967 0.0 0.0 0.0 0.0 0.0 0.0 96.83966 -4.22397 14.6564 12.0794 15.2141 56.8625 0.0 34.9674 0.0 5.6613 -6.50115 63.7784 0.0 0.0 0.0 0.0 0.0 0.0 9.37995 -15.2266 -2.39983 0.0 27.8432 0.0 11.299 -0.81120014 4.04633 0.0 -37.0084 0.0 2.49911 -8.50585 -1.41412 0.0 17.8431 0.0 14.4711 17.79379 4.43362 0.0 -33.8064 0.0 
  2.6569699096679686 2.5255299377441407 9.816199951171875 -125.195 76.883 124.418 -5.43621 -5.88646 3.00615 -7.68318 5.65423 4.45671 27.1749 26.7224 -37.0312 5.06699 -60.7385 -22.3956 -105.457 -7.89553 4.26481 -37.5227 9.97466 4.7999 0.0 25.7977 0.0 14.2567 -11.5375 -1.42756 0.0 0.0 0.0 0.0 0.0 0.0 97.49429 -4.08605 13.1525 10.672 15.5817 58.2468 0.0 34.2925 0.0 5.68679 -6.54319 63.5942 0.0 0.0 0.0 0.0 0.0 0.0 9.26661 -15.121 -2.37352 0.0 28.0585 0.0 11.4866 -0.86800003 4.30329 0.0 -37.0157 0.0 2.46537 -8.2661 -1.21075 0.0 17.5504 0.0 14.4943 17.94379 4.20076 0.0 -33.7473 0.0 
  2.687070007324219 2.5180400085449217 9.815050048828125 -125.081 76.7532 124.141 -5.40654 -5.98435 3.02138 -7.47341 5.58149 4.4631 27.0955 27.0187 -36.9144 4.68341 -60.6521 -22.8474 -105.6219 -7.92839 4.38603 -37.7145 10.1263 4.87333 0.0 24.8802 0.0 13.7719 -11.8816 -1.95778 0.0 0.0 0.0 0.0 0.0 0.0 97.96247 -4.40584 11.9706 9.48854 16.5818 59.4754 0.0 33.5116 0.0 5.38872 -6.86635 63.3803 0.0 0.0 0.0 0.0 0.0 0.0 9.20226 -15.2358 -2.35217 0.0 28.3805 0.0 11.6545 -0.9520998 4.51856 0.0 -37.0185 0.0 2.43918 -8.17218 -1.11907 0.0 17.2739 0.0 14.5364 18.19358 4.13229 0.0 -33.760902 0.0 
  2.7160400390625 2.50843994140625 9.814979858398438 -124.869 76.7316 123.861 -5.29716 -6.01947 3.02686 -7.61587 5.56332 4.44667 27.3077 27.2256 -36.9807 4.58567 -60.6472 -22.8535 -105.5043 -8.00669 4.25578 -38.0988 10.1095 4.97483 0.0 24.2328 0.0 13.3723 -12.1064 -2.89307 0.0 0.0 0.0 0.0 0.0 0.0 98.43621 -4.32674 10.0625 8.25691 16.9675 61.4878 0.0 32.9415 0.0 5.43013 -7.05786 63.2827 0.0 0.0 0.0 0.0 0.0 0.0 9.0809 -15.1403 -2.31656 0.0 28.4156 0.0 11.8014 -0.9996004 4.55566 0.0 -36.9789 0.0 2.31382 -7.96944 -1.15315 0.0 16.9974 0.0 14.6024 18.42532 4.15862 0.0 -33.768402 0.0 
  2.7426998901367186 2.5013600158691407 9.8147998046875 -124.804 76.7113 123.713 -5.2908 -6.04181 3.05507 -7.55202 5.52043 4.47129 27.3568 27.3368 -36.9926 4.46908 -60.6173 -22.9685 -105.4821 -8.01349 4.24123 -38.4438 10.0555 4.98137 0.0 23.9039 0.0 13.1283 -12.2294 -2.39011 0.0 0.0 0.0 0.0 0.0 0.0 98.73413 -4.33054 9.37134 7.56936 17.1419 62.5516 0.0 32.5658 0.0 5.55844 -7.14446 63.315 0.0 0.0 0.0 0.0 0.0 0.0 8.98713 -15.0308 -2.08565 0.0 28.3303 0.0 11.9651 -1.0601006 4.52703 0.0 -37.071503 0.0 2.19024 -7.82021 -1.0544 0.0 16.7308 0.0 14.7486 18.62535 4.13192 0.0 -33.7334 0.0 
